# xmcd
#
# Track frame offsets:
#	150
#	21030
#	40805
#	51625
#	68242
#	84597
#	99537
#	116850
#	135537
#	155812
#
# Disc length: 2245 seconds
#
# Revision: 0
# Processed by: cddbd v1.5PL3 Copyright (c) Steve Scherf et al.
# Submitted via: dBpowerAMP V4.0
#
DISCID=8c08c30a
DTITLE=The Bar Flys - The Bar Flys
DYEAR=1900
DGENRE=
TTITLE0=Thunder Down Under
TTITLE1=Take it Easy
TTITLE2=Buzz Like a Blowie
TTITLE3=Money
TTITLE4=Mulloway
TTITLE5=Tits
TTITLE6=Roller-Coaster
TTITLE7=God Damn Flys
TTITLE8=Boogie Woman
TTITLE9=The Barflys
EXTD=michael jones....australian blues band
EXTT0=
EXTT1=
EXTT2=
EXTT3=
EXTT4=
EXTT5=
EXTT6=
EXTT7=
EXTT8=
EXTT9=
PLAYORDER=
